TITLE ""
FILE "Disc2Track49.mp3" MP3
  TRACK 01 AUDIO
    TITLE "Disc2Track49_01"
    INDEX 01 00:00:00
  TRACK 02 AUDIO
    TITLE "Disc2Track49_02"
    INDEX 01 00:02:05
  TRACK 03 AUDIO
    TITLE "Disc2Track49_03"
    INDEX 01 00:03:05
  TRACK 04 AUDIO
    TITLE "Disc2Track49_04"
    INDEX 01 00:05:21
  TRACK 05 AUDIO
    TITLE "Disc2Track49_05"
    INDEX 01 00:09:37
  TRACK 06 AUDIO
    TITLE "Disc2Track49_06"
    INDEX 01 00:09:70
  TRACK 07 AUDIO
    TITLE "Disc2Track49_07"
    INDEX 01 00:12:08
  TRACK 08 AUDIO
    TITLE "Disc2Track49_08"
    INDEX 01 00:13:19
  TRACK 09 AUDIO
    TITLE "Disc2Track49_09"
    INDEX 01 00:15:29
  TRACK 10 AUDIO
    TITLE "Disc2Track49_10"
    INDEX 01 00:20:05
  TRACK 11 AUDIO
    TITLE "Disc2Track49_11"
    INDEX 01 00:20:37
  TRACK 12 AUDIO
    TITLE "Disc2Track49_12"
    INDEX 01 00:21:46
  TRACK 13 AUDIO
    TITLE "Disc2Track49_13"
    INDEX 01 00:22:49
  TRACK 14 AUDIO
    TITLE "Disc2Track49_14"
    INDEX 01 00:23:56
  TRACK 15 AUDIO
    TITLE "Disc2Track49_15"
    INDEX 01 00:28:60
  TRACK 16 AUDIO
    TITLE "Disc2Track49_16"
    INDEX 01 00:29:18
  TRACK 17 AUDIO
    TITLE "Disc2Track49_17"
    INDEX 01 00:30:33
  TRACK 18 AUDIO
    TITLE "Disc2Track49_18"
    INDEX 01 00:31:32
  TRACK 19 AUDIO
    TITLE "Disc2Track49_19"
    INDEX 01 00:32:48
  TRACK 20 AUDIO
    TITLE "Disc2Track49_20"
    INDEX 01 00:33:10
  TRACK 21 AUDIO
    TITLE "Disc2Track49_21"
    INDEX 01 00:34:33
  TRACK 22 AUDIO
    TITLE "Disc2Track49_22"
    INDEX 01 00:35:73
  TRACK 23 AUDIO
    TITLE "Disc2Track49_23"
    INDEX 01 00:37:21
  TRACK 24 AUDIO
    TITLE "Disc2Track49_24"
    INDEX 01 00:41:05
  TRACK 25 AUDIO
    TITLE "Disc2Track49_25"
    INDEX 01 00:41:37
  TRACK 26 AUDIO
    TITLE "Disc2Track49_26"
    INDEX 01 00:43:40
  TRACK 27 AUDIO
    TITLE "Disc2Track49_27"
    INDEX 01 00:45:15
  TRACK 28 AUDIO
    TITLE "Disc2Track49_28"
    INDEX 01 00:47:16
  TRACK 29 AUDIO
    TITLE "Disc2Track49_29"
    INDEX 01 00:53:07
  TRACK 30 AUDIO
    TITLE "Disc2Track49_30"
    INDEX 01 00:53:38
  TRACK 31 AUDIO
    TITLE "Disc2Track49_31"
    INDEX 01 00:54:65
  TRACK 32 AUDIO
    TITLE "Disc2Track49_32"
    INDEX 01 00:55:56
  TRACK 33 AUDIO
    TITLE "Disc2Track49_33"
    INDEX 01 00:57:10
  TRACK 34 AUDIO
    TITLE "Disc2Track49_34"
    INDEX 01 00:57:46
  TRACK 35 AUDIO
    TITLE "Disc2Track49_35"
    INDEX 01 00:58:67
  TRACK 36 AUDIO
    TITLE "Disc2Track49_36"
    INDEX 01 01:02:13
  TRACK 37 AUDIO
    TITLE "Disc2Track49_37"
    INDEX 01 01:03:34
  TRACK 38 AUDIO
    TITLE "Disc2Track49_38"
    INDEX 01 01:08:28
  TRACK 39 AUDIO
    TITLE "Disc2Track49_39"
    INDEX 01 01:08:59
  TRACK 40 AUDIO
    TITLE "Disc2Track49_40"
    INDEX 01 01:10:74
  TRACK 41 AUDIO
    TITLE "Disc2Track49_41"
    INDEX 01 01:12:08
  TRACK 42 AUDIO
    TITLE "Disc2Track49_42"
    INDEX 01 01:14:22
  TRACK 43 AUDIO
    TITLE "Disc2Track49_43"
    INDEX 01 01:14:60
  TRACK 44 AUDIO
    TITLE "Disc2Track49_44"
    INDEX 01 01:16:12
  TRACK 45 AUDIO
    TITLE "Disc2Track49_45"
    INDEX 01 01:18:20
  TRACK 46 AUDIO
    TITLE "Disc2Track49_46"
    INDEX 01 01:19:43
  TRACK 47 AUDIO
    TITLE "Disc2Track49_47"
    INDEX 01 01:24:09
